Patient4_TMGait_0pt4_02_right_12_EMG.mot
version=1
nRows=29
nColumns=33
inDegrees=no
endheader
time	1LAddLong	2LGlutMax	3LGlutMed	4LIliopsoas	5LSemiMemb	6LBicFemLong	7LRecFem	8LVastMed	9LVastLat	10LGasMed	11LTibAnt	12lTibPost	13LPeroneusLong	14LSol	15LExtDigLong	16LFlexDigLong	17RAddLong	18RGlutMax	19RGlutMed	20RIliopsoas	21RSemiMemb	22RBicFemLong	23RRecFem	24RVastMed	25RVastLat	26RGasMed	27RTibAnt	28RTibPost	29RPeroneusLong	30RSol	31RExtDigLong	32RFlexDigLong
15.37	-0.006409	-0.077667	0.039825	0.000305	0.001221	0.02533	-0.036163	-0.021667	0.075531	0.045929	0.006104	0.017395	0.1384	0.10361	-0.02533	0.022888	0.00824	-0.084686	0.20218	0.15167	0.02243	-0.055084	0.11002	-0.058289	0.006409	-0.007935	-0.062561	-0.009003	0.010986	0.037079	-0.006409	-0.014343
15.371	-0.005188	-0.10712	-0.11307	0.017395	-0.005341	0.031586	0.098572	-0.026855	0.075226	0.03891	-0.00412	0.046082	0.03952	-0.062256	-0.021057	-0.00061	0.002289	-0.075989	0.049286	0.084076	0.016022	-0.025482	0.11581	-0.071564	0.03479	-0.009766	-0.022888	-0.011597	-0.032806	0.00351	-0.008392	-0.014038
15.372	-0.00473	-0.10208	-0.10361	0.005341	-0.008545	0.035706	0.070496	-0.0177	0.035095	0.040588	0.000458	0.046234	0.13062	-0.006714	0.019379	-0.016327	0.001526	-0.14069	-0.068512	-0.019226	0.019836	-0.042114	0.10819	-0.078278	0.017242	-0.010071	-0.012207	-0.007324	-0.010681	-0.037231	-0.006256	-0.01236
15.373	-0.011902	0.009918	-0.022278	-0.010223	-0.005798	0.01297	0.033112	-0.005493	0.019531	0.022278	-0.008545	0.073547	0.10666	-0.077972	0.027771	-0.019531	0.007629	-0.12314	0.086517	-0.048523	0.013428	-0.030823	0.10773	-0.041962	0.014343	-0.007324	0.042572	-0.00824	0.031738	-0.081482	-0.009613	-0.011902
15.374	0.002899	0.0177	0.011292	0.009003	-0.014343	0.017853	0.01358	0.005035	-0.003662	0.007477	-0.010834	0.09964	0.009308	-0.05188	0.032959	-0.02655	0.005951	-0.10056	0.10925	-0.037689	0.011597	-0.052643	0.1355	-0.063324	0.048676	-0.002136	0.045166	-0.010071	0.015411	-0.043335	-0.00946	-0.015259
15.375	-0.007019	0.029144	-0.032501	-0.008545	-0.018463	0.018005	0.001373	-0.002136	-0.001373	-0.009003	-0.003357	-0.088348	-0.14511	0.10407	0.008087	-0.027618	0.013275	-0.11566	0.18249	0.014496	0.016174	-0.039215	0.10651	-0.096283	0.03418	-0.008087	0.1445	-0.006256	-0.088959	-0.01297	-0.007019	-0.002899
15.376	-0.000153	0.036621	0.1239	0.009308	-0.007935	0.009613	0.010223	-0.004578	0.00946	0.012054	-0.007629	-0.05249	0.004578	0.018616	0.001984	-0.011902	0.02243	-0.10391	0.1796	0.066376	0.010681	-0.053711	0.1004	-0.057373	0.037537	-0.005798	0.15823	-0.01297	-0.25589	0.002136	-0.012054	-0.006866
15.377	0.003967	0.06485	0.29526	-0.009308	-0.002136	0.007782	0.003662	-0.000305	0.021362	0.010529	-0.002136	0.012207	-0.096436	-0.013885	0.001678	-0.007782	0.006409	-0.10284	0.044403	0.071259	0.011902	-0.059662	0.10407	-0.092468	0.045319	-0.007935	0.1503	-0.007324	-0.26367	0.017242	-0.005188	-0.008087
15.378	-0.00061	0.034027	0.22003	0.000305	0.007172	0.019989	-0.013885	0.004883	0.025787	-0.016785	-0.019989	0.009308	-0.076294	0.039825	0.007019	0.011597	0.011292	-0.070496	0.12192	0.044861	0.015869	-0.053253	0.090332	-0.076599	0.033417	-0.007172	0.14023	-0.014954	-0.29953	0.042725	-0.002747	-0.007324
15.379	0.001984	0.043945	0.13062	0.007172	-0.003815	0.022278	-0.02533	0.003204	0.036926	-0.009918	-0.008087	-0.034332	-0.016327	0.12314	-0.019226	0.002289	-0.002136	-0.028381	0.22354	-0.014343	0.009155	-0.052338	0.053558	-0.061493	0.038605	-0.009918	0.10681	-0.011749	-0.000458	0.041504	-0.00061	-0.004883
15.38	0.001526	0.08194	0.15289	0.019073	-0.002289	0.027924	-0.035553	0.005341	0.081177	-0.011139	-0.008392	-0.058594	0.050507	0.10162	-0.026093	0.01297	0.002899	-0.014343	0.19791	-0.035706	0.009918	-0.053864	0.084076	-0.061493	0.04776	-0.001984	0.02121	-0.008392	0.26947	0.057831	0.001526	-0.00824
15.381	0.006561	0.075989	0.10605	0.019073	-0.009308	0.006256	-0.002441	0.002136	0.065308	0.005951	-0.003052	-0.040588	0.029755	-0.12573	-0.040588	0.011444	0.006104	-0.032806	0.13123	-0.044708	0.007935	-0.049744	0.10605	-0.080872	0.023804	0	0.017395	-0.007324	0.23132	-0.008087	-0.001373	-0.012512
15.382	0.00946	0.082092	0.050812	0.009155	-0.005798	0.036316	0.006256	0.003967	-0.042725	0.008392	0.006561	-0.053406	-0.031738	-0.067596	0.018158	0.001984	0.008087	-0.06897	0.069427	-0.10025	-0.005188	-0.062408	0.1384	-0.092163	0.0354	-0.007782	0.20203	-0.006409	0.28931	-0.028687	-0.000763	-0.014954
15.383	0.006256	0.049591	-0.009613	0.016632	-0.005035	0.10712	0.01236	-0.002594	-0.019073	-0.006714	0.014648	-0.046082	-0.028076	-0.022583	0.052338	0.008392	0.006866	-0.056763	0.20752	-0.17212	-0.001373	-0.076141	0.097809	-0.070953	0.026093	-0.006409	0.10498	-0.010681	0.1059	0.005341	0.001068	-0.020599
15.384	0.000153	0.034637	-0.028229	0.011292	-0.009918	0.20874	-0.001373	0.012512	0.024414	-0.02533	0.011749	-0.036163	0.2417	-0.021057	0.02182	0.010529	0.00885	-0.095978	0.1268	-0.13016	-0.000763	-0.086365	0.056305	-0.058899	0.020142	0.00061	0.081482	-0.00824	-0.32303	-0.005798	0.003662	-0.019073
15.385	0.005798	0.08316	0	0.003815	-0.011749	0.21194	-0.03006	0.006409	0.056915	-0.032043	0.011139	-0.039063	0.15762	0.10712	-0.047913	0.025177	0.006409	-0.073547	0.042114	0.051575	0.003052	-0.10254	0.074768	-0.08667	0.032043	-0.004883	0.3038	-0.003052	-0.22125	-0.017395	0.003815	-0.018921
15.386	0.005646	0.076141	0.014191	0.00824	-0.023193	0.15656	-0.010223	0.003357	0.043182	-0.016785	0.026093	-0.040894	-0.13412	0.1088	-0.14435	0.012665	0.003967	-0.098572	0.1506	0.095825	-0.010223	-0.11292	0.10025	-0.075378	0.023804	-0.002289	0.37399	-0.008392	-0.1297	0.012665	-0.006409	-0.031128
15.387	0.004425	0.08316	0.005646	0.007935	-0.033875	0.14725	-0.012207	0.005798	0.04364	-0.030212	0.021973	-0.031738	-0.001984	0.005646	-0.027771	0.000153	0.006104	-0.097198	0.13367	0.032501	-0.014343	-0.10986	0.072327	-0.086823	0.016327	-0.00412	-0.024109	-0.002441	-0.11307	-0.046387	-0.00061	-0.029144
15.388	0.01358	0.11185	0.014954	0.007172	-0.038452	-0.059814	-0.018311	0.007019	0.045929	-0.11429	0.001984	-0.03479	-0.089264	0.037689	0.10529	0.006256	0.009918	-0.10574	0.095673	0.005035	-0.010986	-0.12848	0.1059	-0.085297	0.032196	0.003357	-0.159	-0.008087	-0.033722	-0.093384	0.000458	-0.027313
15.389	0.006409	0.1265	0.040894	0.017395	0.033569	-0.25055	0.027313	0.006561	0.037842	-0.1561	-0.006866	-0.029755	-0.1738	0.020142	0.056	0.005951	0.011597	-0.10239	0.027161	0.03891	-0.009308	-0.13641	0.083771	-0.066986	0.03006	0.002289	-0.18173	-0.001373	-0.076752	-0.098114	-0.008392	-0.016327
15.39	0.00473	0.13199	0.095978	0.025635	0.070038	-0.34439	0.00824	0.006256	0.025635	-0.11536	-0.001221	-0.030975	-0.32211	-0.000916	0.048218	0.019226	0.005951	-0.063019	0.059204	0.063019	-0.010223	-0.15228	0.051117	-0.070801	0.023346	-0.003052	-0.004578	-0.001526	-0.41657	-0.067596	-0.005646	-0.02121
15.391	-0.001678	0.11841	0.11429	0.029602	0.036926	-0.32516	0.011292	0.016937	0.002136	-0.10071	0.002594	-0.040283	-0.039673	-0.006561	-0.004425	0.021667	0.009918	-0.074615	0.32455	-0.023804	-0.010071	-0.16876	0.078278	-0.061035	0.028992	-0.011292	-0.016479	0.001984	-0.28122	-0.012817	-0.005951	-0.016174
15.392	-0.002136	0.097351	0.025024	0.036926	0.018311	-0.082397	0.004883	0.019684	-0.002899	-0.10147	0.010071	-0.030975	-0.060883	0.057831	0.027313	0.013733	0.009155	-0.055847	0.47867	-0.077362	-0.009766	-0.18601	0.076447	-0.097351	0.025024	-0.014038	-0.050354	-0.000458	-0.006104	-0.048828	-0.007629	-0.020294
15.393	0.005035	0.084991	-0.076141	0.017242	0.004272	0.041962	0.003815	0.007172	0.017548	-0.085754	0.01358	-0.028687	0.028076	0.073547	0.09613	0.005188	0.018005	-0.046692	0.22492	-0.07431	-0.018311	-0.18799	0.074921	-0.096283	0.014191	-0.008545	0.019989	-0.003815	0.17868	-0.082703	-0.006256	-0.009766
15.394	0.019226	0.075836	-0.11551	-0.002747	0.014191	0.027924	-0.042267	-0.000153	0.029907	-0.016785	-0.010071	-0.023193	0.15869	0.085297	0.067291	0.003815	0.041962	-0.016174	-0.064087	-0.035858	-0.011902	-0.21988	0.07843	-0.086517	0.016479	-0.006256	0.20172	-0.000305	0.064087	-0.050354	-0.006866	-0.007172
15.395	0.007935	0.080872	-0.012512	-0.007935	-0.025787	-0.077209	-0.046387	0.00412	0.04303	0.058136	-0.007324	-0.021973	0.10635	0.063477	0.031738	0.006866	0.047302	-0.046997	-0.26199	-0.042877	-0.021515	-0.24063	0.065308	-0.096283	0.015411	0.001984	-0.082703	-0.002899	0.22339	-0.003967	-0.006714	-0.004272
15.396	0.006409	0.041962	0.10544	-0.028687	-0.037994	-0.049896	-0.013428	0.010834	0.065765	0.12207	0.001068	-0.023804	0.089874	-0.069275	0.005798	0.014954	0.036469	-0.08255	-0.32028	-0.059357	-0.023193	-0.27237	0.031433	-0.061035	0.024719	-0.010223	-0.29053	-0.003357	0.3656	0.040283	-0.007019	0.000153
15.397	0.007629	0.069275	0.05127	-0.016327	-0.016479	-0.022888	-0.003357	0.00885	0.067596	0.1532	-0.011292	-0.014801	0.11154	-0.12558	0.002594	-0.002594	0.03006	-0.048981	-0.18829	-0.067596	-0.023956	-0.28656	0.016632	-0.090485	0.027313	-0.007782	-0.20065	-0.003204	0.11719	0.025787	-0.005035	-0.008392
15.398	0.006714	0.056763	0.012512	0.037231	-0.002289	-0.005341	-0.038147	0.009003	0.045471	0.13412	-0.01236	-0.024109	0.15747	-0.10147	-0.00412	0.005798	0.022278	-0.057373	-0.18601	0.029144	-0.021057	-0.19333	0.021057	-0.040894	0.026855	-0.004578	-0.049438	-0.003204	-0.35461	-0.10681	0.001221	-0.008087
